<svg id="Layer_1" data-name="Layer 1" xmlns="http://www.w3.org/2000/svg" viewBox="0 0 237.94 627.74"><defs><style>.cls-1,.cls-2,.cls-3,.cls-4{fill:none;stroke:#fff;stroke-miterlimit:10;opacity:0.63;}.cls-1{stroke-width:4px;}.cls-2{stroke-width:3px;}.cls-3{stroke-width:6px;}.cls-5{fill:#fff;}</style></defs><line class="cls-1" x1="142.93" y1="28.72" x2="142.93" y2="270.32"/><line class="cls-1" x1="165.93" y1="71.32" x2="165.93" y2="270.32"/><line class="cls-2" x1="185.08" y1="106.59" x2="185.08" y2="270.32"/><line class="cls-1" x1="97.03" y1="28.72" x2="97.03" y2="270.32"/><line class="cls-1" x1="74.03" y1="71.32" x2="74.03" y2="270.32"/><line class="cls-2" x1="54.88" y1="106.59" x2="54.88" y2="270.32"/><line class="cls-3" x1="120.03" x2="120.03" y2="270.32"/><line class="cls-1" x1="142.93" y1="599.02" x2="142.93" y2="357.42"/><line class="cls-1" x1="165.93" y1="556.42" x2="165.93" y2="357.42"/><line class="cls-2" x1="185.08" y1="521.15" x2="185.08" y2="357.42"/><line class="cls-1" x1="97.03" y1="599.02" x2="97.03" y2="357.42"/><line class="cls-1" x1="74.03" y1="556.42" x2="74.03" y2="357.42"/><line class="cls-2" x1="54.88" y1="521.15" x2="54.88" y2="357.42"/><line class="cls-3" x1="120.03" y1="627.74" x2="120.03" y2="357.42"/><line class="cls-4" x1="2.02" y1="328.89" x2="237.94" y2="328.89"/><path class="cls-5" d="M76.56,304.47c.14,0,.29-.05.29-.3v-1c0-7.65,0-9-.1-10.59s-.49-2.45-2.11-2.79a9.32,9.32,0,0,0-1.66-.15c-.2,0-.39-.1-.39-.29s.24-.39.78-.39c2.21,0,5.29.14,5.54.14s3.33-.14,4.8-.14c.54,0,.78.1.78.39s-.19.29-.39.29a6.26,6.26,0,0,0-1.22.15c-1.33.25-1.72,1.08-1.82,2.79S81,295.52,81,303.17v8.62c0,4.7,0,8.57.24,10.63.15,1.42.44,2.5,1.91,2.7.69.09,1.77.19,2.21.19s.39.15.39.3-.25.39-.79.39c-2.69,0-5.78-.15-6-.15s-3.33.15-4.8.15c-.54,0-.79-.1-.79-.39s.1-.3.39-.3a8.22,8.22,0,0,0,1.47-.19c1-.2,1.23-1.28,1.42-2.7.25-2.06.25-5.93.25-10.63v-5.15a.29.29,0,0,0-.27-.29H55.78a.25.25,0,0,0-.29.2.14.14,0,0,0,0,.09v5.15c0,4.7,0,8.57.24,10.63.15,1.42.44,2.5,1.91,2.7.69.09,1.77.19,2.21.19.29,0,.39.15.39.3s-.24.39-.78.39c-2.7,0-5.78-.15-6-.15s-3.33.15-4.8.15c-.54,0-.79-.1-.79-.39s.1-.3.4-.3a8.22,8.22,0,0,0,1.47-.19c1-.2,1.22-1.28,1.42-2.7.24-2.06.24-5.93.24-10.63v-8.62c0-7.65,0-9-.1-10.59s-.49-2.45-2.1-2.79a9.34,9.34,0,0,0-1.67-.15c-.19,0-.39-.1-.39-.29s.24-.39.78-.39c2.21,0,5.29.14,5.54.14s3.33-.14,4.8-.14c.54,0,.79.1.79.39s-.2.29-.4.29a7.14,7.14,0,0,0-1.22.15c-1.32.25-1.72,1.08-1.81,2.79s-.1,2.94-.1,10.59v1c0,.25.14.3.29.3Z" transform="translate(-14.03 -8.13)"/><path class="cls-5" d="M97.82,303.15c0-7.65,0-9-.09-10.59s-.49-2.45-2.11-2.79a11.4,11.4,0,0,0-1.42-.15c-.35-.05-.64-.1-.64-.29s.25-.39.78-.39c1.13,0,2.46,0,5.54.14H111.1a7.89,7.89,0,0,0,2.26-.3,1.15,1.15,0,0,1,.53-.2c.15,0,.2.2.2.45a22.54,22.54,0,0,0-.39,2.3c0,.73-.1,1.66-.2,2.94,0,.49-.19.83-.39.83s-.39-.24-.39-.64a4.88,4.88,0,0,0-.25-1.61c-.34-1.13-1.37-1.62-3.52-1.81-.84-.1-6.18-.15-6.72-.15-.19,0-.29.15-.29.49V304.9c0,.34,0,.49.29.49.64,0,6.67,0,7.79-.1,1.33-.1,2-.24,2.45-.83.25-.29.4-.49.59-.49s.25.1.25.39-.25,1.13-.4,2.75-.14,2.64-.19,3.33c0,.49-.15.73-.34.73s-.35-.39-.35-.78a4.87,4.87,0,0,0-.19-1.37c-.2-.74-.79-1.42-2.55-1.62-1.32-.15-6.17-.25-7-.25a.31.31,0,0,0-.34.28.09.09,0,0,0,0,.07v4.31c0,1.67,0,7.35,0,8.38.1,2,.39,3.08,1.62,3.57a11.58,11.58,0,0,0,4.06.44,16,16,0,0,0,4.41-.44c1.57-.49,2.11-1.51,2.5-3.62.1-.54.2-.74.44-.74s.3.4.3.74-.4,3.72-.64,4.75c-.34,1.27-.74,1.27-2.65,1.27-3.62,0-5.24-.09-7.15-.14s-4.21-.15-6.12-.15c-1.18,0-2.36.2-3.63.15-.54,0-.78-.1-.78-.39s.24-.25.54-.3a7.14,7.14,0,0,0,1.12-.14c1-.25,1.67-.94,1.77-4.61,0-1.91.09-4.41.09-8.77Z" transform="translate(-14.03 -8.13)"/><path class="cls-5" d="M126.15,303.15c0-7.65,0-9-.1-10.59s-.49-2.45-2.11-2.79a9.34,9.34,0,0,0-1.67-.15c-.19,0-.39-.1-.39-.29s.25-.39.79-.39c2.2,0,5.29.14,5.53.14.54,0,4.27-.14,5.78-.14,3.09,0,6.37.29,9,2.15a8.58,8.58,0,0,1,3.38,6.67c0,3.62-1.52,7.25-5.93,11.31,4,5.15,7.35,9.51,10.19,12.55,2.65,2.79,4.76,3.33,6,3.53a12.19,12.19,0,0,0,1.91.14c.25,0,.44.15.44.3s-.29.39-1.17.39h-3.48c-2.74,0-4-.25-5.24-.93-2.11-1.13-3.82-3.53-6.62-7.21-2.06-2.69-4.36-6-5.34-7.25a.79.79,0,0,0-.64-.29l-6-.1c-.25,0-.34.15-.34.39v1.18c0,4.7,0,8.57.24,10.63.15,1.42.44,2.5,1.91,2.7.69.09,1.76.19,2.21.19.29,0,.39.15.39.3s-.25.39-.79.39c-2.69,0-5.78-.15-6-.15,0,0-3.14.15-4.61.15-.54,0-.78-.1-.78-.39s.1-.3.39-.3a8.22,8.22,0,0,0,1.47-.19c1-.2,1.22-1.28,1.42-2.7.25-2.06.25-5.93.25-10.63Zm3.92,4.26a.63.63,0,0,0,.34.59,13.4,13.4,0,0,0,5.14.78,6.37,6.37,0,0,0,3.68-.93c1.71-1.18,3-3.82,3-7.55,0-6.12-3.24-9.8-8.48-9.8a14.47,14.47,0,0,0-3.28.3.58.58,0,0,0-.39.59Z" transform="translate(-14.03 -8.13)"/><path class="cls-5" d="M165.84,311.52a.53.53,0,0,0-.5.4l-2.93,8.67a10,10,0,0,0-.69,3.28c0,1,.93,1.42,1.76,1.42h.44c.49,0,.64.1.64.3s-.44.39-.88.39c-1.18,0-3.14-.15-3.68-.15s-3.23.15-5.53.15c-.64,0-.93-.1-.93-.39s.24-.3.68-.3a9.39,9.39,0,0,0,1.18-.1c2.25-.29,3.23-2.15,4.11-4.6l11.13-30.43c.58-1.62.78-1.91,1.07-1.91s.49.25,1.08,1.77c.74,1.86,8.43,22.09,11.42,29.54,1.76,4.36,3.18,5.14,4.21,5.44a6.5,6.5,0,0,0,1.91.29c.3,0,.54,0,.54.3s-.44.39-1,.39c-.73,0-4.31,0-7.69-.1-.93,0-1.47,0-1.47-.34s.15-.3.34-.35.59-.54.3-1.32l-4.56-12.05a.43.43,0,0,0-.44-.3Zm9.89-1.76c.25,0,.25-.15.2-.34l-4.66-13.23c-.24-.74-.49-.74-.73,0l-4.31,13.23c-.1.24,0,.34.14.34Z" transform="translate(-14.03 -8.13)"/><path class="cls-5" d="M200.33,311.52a.51.51,0,0,0-.49.4l-2.94,8.67a10.28,10.28,0,0,0-.69,3.28c0,1,.94,1.42,1.77,1.42h.44c.49,0,.64.1.64.3s-.44.39-.89.39c-1.17,0-3.13-.15-3.67-.15s-3.23.15-5.54.15c-.63,0-.93-.1-.93-.39s.25-.3.69-.3a9.24,9.24,0,0,0,1.17-.1c2.26-.29,3.24-2.15,4.12-4.6l11.12-30.43c.59-1.62.79-1.91,1.08-1.91s.49.25,1.08,1.77c.73,1.86,8.43,22.09,11.41,29.54,1.77,4.36,3.19,5.14,4.22,5.44a6.5,6.5,0,0,0,1.91.29c.29,0,.54,0,.54.3s-.44.39-1,.39c-.74,0-4.31,0-7.7-.1-.93,0-1.47,0-1.47-.34s.15-.3.35-.35.59-.54.29-1.32l-4.56-12.05a.42.42,0,0,0-.44-.3Zm9.9-1.76c.24,0,.24-.15.19-.34l-4.65-13.23c-.25-.74-.49-.74-.74,0l-4.31,13.23c-.1.24,0,.34.15.34Z" transform="translate(-14.03 -8.13)"/><path class="cls-5" d="M23.36,349h.09l-.85,1.63-.14-.08c.05-.27.11-.31-.25-.55a6.23,6.23,0,0,0-4.63-.57,3,3,0,0,0-2.21,2.31,3.42,3.42,0,0,0,.8,3.09,4.46,4.46,0,0,0,3.89,1.06c.49-.1,2.68-.72,2.57-1.7h.09l1.11,1.38-.08.07c-.1,0-.14-.12-.26-.12s-.11,0-.24.1a4.93,4.93,0,0,0-.53.36,6.24,6.24,0,0,1-5.83.61,4.16,4.16,0,0,1-2.81-3.43,4,4,0,0,1,1.6-3.84c1.81-1.4,4.55-1.18,6.14-.66.29.1.61.23.78.31a2.27,2.27,0,0,0,.38.16C23.22,349.17,23.11,349.13,23.36,349Z" transform="translate(-14.03 -8.13)"/><path class="cls-5" d="M31.32,349.68a5,5,0,0,1,4.2,1.33,3.73,3.73,0,0,1,.7,3.4,3.54,3.54,0,0,1-2.55,2.38,5.5,5.5,0,0,1-4.5-.69,3.41,3.41,0,0,1-1.3-3.29,3.33,3.33,0,0,1,2-2.72A4.91,4.91,0,0,1,31.32,349.68Zm-1.38,1.5a2.83,2.83,0,0,0-1.05,2.42,2.63,2.63,0,0,0,1.44,2.13,4.4,4.4,0,0,0,3.36.1,2.76,2.76,0,0,0,1.65-2.15,2.63,2.63,0,0,0-.89-2.4,4.18,4.18,0,0,0-3.18-.71A3.66,3.66,0,0,0,29.94,351.18Z" transform="translate(-14.03 -8.13)"/><path class="cls-5" d="M40.47,349.71h2v.15c-.09,0-.23.05-.18.17a2,2,0,0,0,.22.29l4.39,5v-5.43h-.22v-.14h1.54v.14a.37.37,0,0,0-.29.17.57.57,0,0,0,0,.26v5.85a1.21,1.21,0,0,0,0,.38c0,.08.25.12.25.12v.12H46.44v-.14a.69.69,0,0,0,.24,0,.09.09,0,0,0,0-.07l-5.07-5.73v5.43a.62.62,0,0,0,0,.33c0,.09.25.12.25.12v.11h-1.5v-.11c.07,0,.24,0,.3-.14a1.61,1.61,0,0,0,0-.31V350c-.07-.18-.12-.12-.25-.16Z" transform="translate(-14.03 -8.13)"/><path class="cls-5" d="M52.28,349.42h.12c0,.08,0,.29.2.29H59a2.94,2.94,0,0,0,.42,0c.06,0,.1-.23.1-.23h.13v1.44h-.13a.33.33,0,0,0-.18-.27c-.06-.06-.28,0-.34,0H56.45v6a.31.31,0,0,0,.32.14v.1h-1.7v-.1c.07,0,.28,0,.31-.14a1.85,1.85,0,0,0,0-.34V350.6H52.89c-.34,0-.39,0-.51.31h-.11Z" transform="translate(-14.03 -8.13)"/><path class="cls-5" d="M63.75,349.7h4.12c.46,0,2.54,0,3.11,1.15a2.11,2.11,0,0,1-.23,2.06,2.53,2.53,0,0,1-1.71.78l1.33,2.09c.26.44.43.85,1,.93v.09h-2v-.11s.25,0,.3-.08v-.05c0-.12,0-.08-.09-.23l-1.73-2.61H65.11v2.49a1.09,1.09,0,0,0,0,.36c.07.14.13.1.33.16v.1H63.63v-.14c.12,0,.25.05.38-.13a1.34,1.34,0,0,0,0-.4v-5.8c0-.39,0-.41-.4-.49Zm1.46,3.21H68c.5,0,1.54.1,2-.58a1.16,1.16,0,0,0,0-1.1c-.41-.73-2.21-.69-2.32-.69H65.21Z" transform="translate(-14.03 -8.13)"/><path class="cls-5" d="M81.37,355.5l-.28-.57H77.44l-.6,1.35a.41.41,0,0,0-.09.28l.3.14v.1H75.42v-.11a.4.4,0,0,0,.31-.11l.15-.3,2.68-6a.42.42,0,0,0,.07-.27l-.31-.12v-.15h2v.16a.24.24,0,0,0-.29.16,1,1,0,0,0,.14.35l2.62,5.84a1.57,1.57,0,0,1,.12.3.37.37,0,0,0,.33.13v.12H81.51v-.16h.17c.09-.06.15-.09.1-.21Zm-3.57-1.42h2.94l-1.45-3.28Z" transform="translate(-14.03 -8.13)"/><path class="cls-5" d="M94.84,350.2l.09.08-.8,1.35-.11-.06c0-.27.11-.31-.2-.54a4.66,4.66,0,0,0-3.69-.34,2.4,2.4,0,0,0-1.75,2,2.82,2.82,0,0,0,.83,2.68,4.07,4.07,0,0,0,3.18.66,4.68,4.68,0,0,0,1.08-.4,2.62,2.62,0,0,0,.53-.33c.17-.14.2-.22.21-.26a.35.35,0,0,0-.08-.26l.09-.1,1,1.2-.14.07a.52.52,0,0,0-.27-.1c-.1,0-.13.07-.26.14a1.2,1.2,0,0,0-.27.16c-.12.08-.13.07-.26.15a7.35,7.35,0,0,1-1.08.47,4.71,4.71,0,0,1-4.34-.66,3.47,3.47,0,0,1-1.3-3.42A3.22,3.22,0,0,1,89.65,350a5.82,5.82,0,0,1,2.31-.26,5.94,5.94,0,0,1,1.18.2,2.34,2.34,0,0,1,.58.22l.3.13.29.17C94.62,350.46,94.56,350.4,94.84,350.2Z" transform="translate(-14.03 -8.13)"/><path class="cls-5" d="M99.29,349.42h.12c0,.08,0,.29.2.29H106a2.94,2.94,0,0,0,.42,0c.06,0,.1-.23.1-.23h.13v1.44h-.13a.33.33,0,0,0-.18-.27c-.06-.06-.28,0-.34,0h-2.56v6a.31.31,0,0,0,.33.14v.1h-1.71v-.1c.07,0,.28,0,.32-.14a1,1,0,0,0,0-.34V350.6H99.86c-.35,0-.4,0-.52.31h-.11Z" transform="translate(-14.03 -8.13)"/><path class="cls-5" d="M110.72,356.8v-.14c.12,0,.28,0,.34-.13a2,2,0,0,0,0-.35v-5.86a1.71,1.71,0,0,0,0-.32.33.33,0,0,0-.27-.15v-.14h1.73v.15a.34.34,0,0,0-.31.11.86.86,0,0,0,0,.32v6.23a.34.34,0,0,0,.34.17v.11Z" transform="translate(-14.03 -8.13)"/><path class="cls-5" d="M116.63,349.71h2v.15c-.08,0-.23.05-.17.17a1.19,1.19,0,0,0,.21.29l4.39,5v-5.43h-.22v-.14h1.54v.14a.37.37,0,0,0-.29.17.57.57,0,0,0,0,.26v5.85a1.21,1.21,0,0,0,0,.38c0,.08.25.12.25.12v.12h-1.73v-.14a.69.69,0,0,0,.24,0,.09.09,0,0,0,0-.07l-5.07-5.73v5.43a.62.62,0,0,0,0,.33c0,.09.25.12.25.12v.11h-1.54v-.11c.07,0,.24,0,.3-.14a1.61,1.61,0,0,0,0-.31V350c-.07-.18-.12-.12-.25-.16Z" transform="translate(-14.03 -8.13)"/><path class="cls-5" d="M136.34,350.37l.09.05-.85,1.33-.12-.06c0-.26.15-.25-.17-.5a4.48,4.48,0,0,0-3.75-.58,2.56,2.56,0,0,0-1.95,1.83,2.88,2.88,0,0,0,.51,2.62,3.73,3.73,0,0,0,3.17,1,5.31,5.31,0,0,0,2.06-.8v-1.11h-1.87c-.19.12-.22.1-.22.28h-.15V353h.15a.32.32,0,0,0,.15.3h3.12v.11h-.14c-.06.08-.05.06-.05.16v1.61l.2.11v.2a6,6,0,0,1-5.68,1.07,3.26,3.26,0,0,1-2.37-2.71,3.56,3.56,0,0,1,1.34-3.46,5.67,5.67,0,0,1,5.05-.45c.4.15.73.3.73.3a1.56,1.56,0,0,0,.37.17C136.19,350.53,136.12,350.48,136.34,350.37Z" transform="translate(-14.03 -8.13)"/><path class="cls-5" d="M177.94,349l.12.07-.73,1.49-.15-.05c0-.24.08-.19-.18-.41a3.75,3.75,0,0,0-.44-.24,5,5,0,0,0-.89-.32c-.79-.23-3.35-.5-4.31.5a1.06,1.06,0,0,0-.32,1.11c.3.7,1.84.85,2.09.88l2.11.17c.66.08,2.17.22,2.73,1.26a2.14,2.14,0,0,1,0,2c-.62,1.05-2.29,1.47-3.12,1.56a8.6,8.6,0,0,1-2.63-.17,7,7,0,0,1-1.34-.44.51.51,0,0,1-.16-.09l-.18-.07-.32-.16s-.31-.15-.34-.15c-.21,0-.11,0-.32.16l-.14-.1.9-1.6.15.07c-.05.33-.1.35.28.64a6.59,6.59,0,0,0,4.83.79,2,2,0,0,0,1.46-1,1.17,1.17,0,0,0,0-.9c-.37-.55-1.63-.64-1.85-.65l-1.91-.15c-.73-.07-2.64-.28-3.17-1.47a2.15,2.15,0,0,1,.38-2.16c1.11-1.32,3.78-1.28,4.8-1.12a10.9,10.9,0,0,1,1.36.36c.32.11.43.16.69.27a2,2,0,0,0,.34.13C177.79,349.14,177.77,349.14,177.94,349Z" transform="translate(-14.03 -8.13)"/><path class="cls-5" d="M188.47,349.9v-.14H190v.14a.21.21,0,0,0-.24.13v3.82a2.57,2.57,0,0,1-1.16,2.63,6.65,6.65,0,0,1-5,0c-1.16-.63-1.08-1.38-1.08-2.38v-3.75a1,1,0,0,0,0-.34c-.06-.17-.29-.16-.29-.16v-.14h1.69v.15c-.14,0-.31,0-.33.17a1.78,1.78,0,0,0,0,.35V354c0,.61,0,1.4.61,1.81a6.23,6.23,0,0,0,3.82,0c.77-.4.69-1.12.69-1.78v-3.7a.51.51,0,0,0,0-.3A.28.28,0,0,0,188.47,349.9Z" transform="translate(-14.03 -8.13)"/><path class="cls-5" d="M194.11,349.7h4.19c.64,0,2.2,0,2.81,1a2.25,2.25,0,0,1,0,2.08c-.61.86-2.23,1-3,.94H195.5v2.73c.09.21.12.15.28.21v.1H194v-.14a.43.43,0,0,0,.32-.08.86.86,0,0,0,0-.32V350c0-.19-.29-.17-.29-.17Zm1.37,3.23h2.76c.29,0,1.52.08,1.94-.56a1.4,1.4,0,0,0,0-1.23c-.41-.68-1.6-.61-2.09-.61h-2.63Z" transform="translate(-14.03 -8.13)"/><path class="cls-5" d="M205.45,349.7h4.2c.64,0,2.2,0,2.8,1a2.19,2.19,0,0,1,0,2.08c-.61.86-2.22,1-3,.94h-2.64v2.73c.09.21.12.15.28.21v.1h-1.7v-.14a.42.42,0,0,0,.31-.08.7.7,0,0,0,.05-.32V350c0-.19-.3-.17-.3-.17Zm1.37,3.23h2.76c.29,0,1.53.08,1.94-.56a1.34,1.34,0,0,0,0-1.23c-.41-.68-1.6-.61-2.08-.61H206.8Z" transform="translate(-14.03 -8.13)"/><path class="cls-5" d="M216.79,349.7h1.45v.14c-.1,0-.2,0-.2.18a1.22,1.22,0,0,0,0,.27V356h5c.18-.06.19-.15.19-.29h.14v1.43h-.14c-.07-.16,0-.18-.18-.28a1.26,1.26,0,0,0-.33,0h-6v-.14h.12l.1-.08V349.9l-.16-.07Z" transform="translate(-14.03 -8.13)"/><path class="cls-5" d="M227.37,356.8v-.14c.12,0,.28,0,.33-.14a1,1,0,0,0,0-.34V350a.33.33,0,0,0-.27-.15v-.14h1.73v.15a.33.33,0,0,0-.3.11c-.1.11,0,.24,0,.32v6.22a.34.34,0,0,0,.34.18v.11Z" transform="translate(-14.03 -8.13)"/><path class="cls-5" d="M239.32,349.7h.36c.21-.09.12-.14.18-.27H240v1.43h-.13c-.06-.13,0-.23-.21-.3h-5.15v2.29h3.14a1,1,0,0,0,.35,0,.36.36,0,0,0,.16-.11v-.15h.12v1.32h-.12l-.15-.27h-3.53V356h4.94a1.09,1.09,0,0,0,.36,0c.19-.11.1-.15.14-.28h.15v1.4H240c-.06-.13,0-.17-.19-.27h-6.61v-.16h.19a.48.48,0,0,0,.07-.31V350c0-.17-.13-.18-.2-.18l-.05-.14Z" transform="translate(-14.03 -8.13)"/><path class="cls-5" d="M251,350l.11,0-.62,1.44-.12-.06c0-.24.1-.28-.22-.49a6.85,6.85,0,0,0-3.67-.28,1.62,1.62,0,0,0-1.1.87.77.77,0,0,0,.11.73c.38.51,1.91.58,1.94.58h1.07c.5,0,2,.13,2.56,1a1.79,1.79,0,0,1,.06,1.71,3.11,3.11,0,0,1-2.25,1.4,6.7,6.7,0,0,1-2.32-.08,7.6,7.6,0,0,1-1.15-.34l-.58-.24a.73.73,0,0,0-.28-.1l-.14.05-.14.13-.09-.05.79-1.51H245c-.06.28-.15.32.17.56a5.06,5.06,0,0,0,3.7.67,1.86,1.86,0,0,0,1.3-.91,1,1,0,0,0-.06-.85c-.4-.54-1.46-.55-1.77-.56l-1.22-.06c-.71,0-2.2-.09-2.68-1.2a1.86,1.86,0,0,1,.37-1.95c1.19-1.25,4.21-.83,5.36-.52h.2a.6.6,0,0,0,.27.07C250.77,350.14,250.79,350.13,251,350Z" transform="translate(-14.03 -8.13)"/><path class="cls-5" d="M153,348.41l.4,1.07h-.13a4.15,4.15,0,0,0-1.21-1,2.67,2.67,0,0,0-1.34-.39,1.11,1.11,0,0,0-.9.34,1.15,1.15,0,0,0-.29.75,3.31,3.31,0,0,0,1.25,2l4.14,4.1a3.9,3.9,0,0,0,.64-1.61,9.58,9.58,0,0,0,.18-1.51c0-.26-.06-.43-.18-.5a1.36,1.36,0,0,0-.59-.12h-.3v-.11h2v.12a.37.37,0,0,0-.43.17,4.2,4.2,0,0,0-.22.93,6.43,6.43,0,0,1-.91,2.82l1,.95a1.82,1.82,0,0,0,2.47.36l.07.09a3.18,3.18,0,0,1-1.85.61,2.7,2.7,0,0,1-1.91-.86s0-.05-.07-.09l-.31-.3a4.77,4.77,0,0,1-3.41,1.25,4,4,0,0,1-3-1,3.24,3.24,0,0,1-1-2.27,2.81,2.81,0,0,1,.66-1.86,3,3,0,0,1,1.82-1,4.86,4.86,0,0,1-.5-.85,2.11,2.11,0,0,1-.17-.82,1.82,1.82,0,0,1,.49-1.25,2,2,0,0,1,1.57-.55,3.6,3.6,0,0,1,1,.1A5.48,5.48,0,0,1,153,348.41Zm1.28,7.61-3.56-3.46-.45-.47c-.27-.29-.45-.49-.54-.61-1.27.3-1.91.93-1.91,1.91a3.3,3.3,0,0,0,1.24,2.44,4,4,0,0,0,2.81,1.12,3.32,3.32,0,0,0,1.29-.2,5.09,5.09,0,0,0,1-.66l.06,0Z" transform="translate(-14.03 -8.13)"/></svg>