<svg width="19" height="19" viewBox="0 0 19 19" fill="none" xmlns="http://www.w3.org/2000/svg">
<path d="M9.21327 18.4887C7.98482 18.4887 6.82378 18.2526 5.73016 17.7803C4.63654 17.3081 3.68165 16.664 2.86548 15.8478C2.04931 15.0316 1.40512 14.0767 0.932916 12.9831C0.460712 11.8895 0.224609 10.7285 0.224609 9.5C0.224609 8.25657 0.460712 7.09194 0.932916 6.00611C1.40512 4.92028 2.04931 3.96898 2.86548 3.15221C3.68165 2.33544 4.63654 1.69126 5.73016 1.21965C6.82378 0.748046 7.98482 0.511944 9.21327 0.511345C10.4567 0.511345 11.6216 0.747447 12.7081 1.21965C13.7945 1.69186 14.7455 2.33604 15.5611 3.15221C16.3766 3.96838 17.0208 4.91968 17.4936 6.00611C17.9664 7.09254 18.2025 8.25717 18.2019 9.5C18.2019 10.7285 17.9658 11.8895 17.4936 12.9831C17.0214 14.0767 16.3772 15.0319 15.5611 15.8487C14.7449 16.6655 13.7936 17.3096 12.7072 17.7812C11.6207 18.2529 10.4561 18.4887 9.21327 18.4887ZM9.21327 16.646C9.60277 16.1067 9.93985 15.5449 10.2245 14.9606C10.5091 14.3763 10.7413 13.7546 10.9211 13.0955H7.50542C7.68519 13.7546 7.9174 14.3763 8.20204 14.9606C8.48668 15.5449 8.82376 16.1067 9.21327 16.646ZM6.87621 16.2864C6.60655 15.7921 6.37075 15.2788 6.16881 14.7467C5.96686 14.2146 5.79818 13.6641 5.66275 13.0955H3.01109C3.44554 13.8445 3.98876 14.4962 4.64074 15.0505C5.29271 15.6048 6.03787 16.0168 6.87621 16.2864ZM11.5503 16.2864C12.3893 16.0168 13.1347 15.6048 13.7867 15.0505C14.4387 14.4962 14.9816 13.8445 15.4154 13.0955H12.7638C12.629 13.6647 12.4606 14.2154 12.2586 14.7476C12.0567 15.2797 11.8206 15.7927 11.5503 16.2864ZM2.24706 11.2977H5.3032C5.25826 10.9981 5.2247 10.7024 5.20253 10.4106C5.18036 10.1187 5.16897 9.8152 5.16837 9.5C5.16777 9.1848 5.17916 8.88158 5.20253 8.59035C5.2259 8.29912 5.25946 8.00309 5.3032 7.70227H2.24706C2.17215 8.00189 2.11612 8.29792 2.07897 8.59035C2.04182 8.88278 2.02294 9.186 2.02234 9.5C2.02174 9.814 2.04062 10.1175 2.07897 10.4106C2.11732 10.7036 2.17335 10.9993 2.24706 11.2977ZM7.10093 11.2977H11.3256C11.3705 10.9981 11.4044 10.7024 11.4272 10.4106C11.4499 10.1187 11.461 9.8152 11.4604 9.5C11.4598 9.1848 11.4484 8.88158 11.4263 8.59035C11.4041 8.29912 11.3705 8.00309 11.3256 7.70227H7.10093C7.05599 8.00189 7.02243 8.29792 7.00026 8.59035C6.97809 8.88278 6.9667 9.186 6.9661 9.5C6.9655 9.814 6.97689 10.1175 7.00026 10.4106C7.02363 10.7036 7.05719 10.9993 7.10093 11.2977ZM13.1233 11.2977H16.1795C16.2544 10.9981 16.3107 10.7024 16.3485 10.4106C16.3862 10.1187 16.4048 9.8152 16.4042 9.5C16.4036 9.1848 16.385 8.88158 16.3485 8.59035C16.3119 8.29912 16.2556 8.00309 16.1795 7.70227H13.1233C13.1683 8.00189 13.2021 8.29792 13.2249 8.59035C13.2477 8.88278 13.2588 9.186 13.2582 9.5C13.2576 9.814 13.2462 10.1175 13.224 10.4106C13.2018 10.7036 13.1683 10.9993 13.1233 11.2977ZM12.7638 5.90454H15.4154C14.981 5.15548 14.4381 4.50381 13.7867 3.94951C13.1353 3.39521 12.3899 2.98323 11.5503 2.71357C11.82 3.20794 12.0561 3.72119 12.2586 4.25332C12.4612 4.78545 12.6296 5.33586 12.7638 5.90454ZM7.50542 5.90454H10.9211C10.7413 5.24537 10.5091 4.62366 10.2245 4.03939C9.93985 3.45513 9.60277 2.89334 9.21327 2.35402C8.82376 2.89334 8.48668 3.45513 8.20204 4.03939C7.9174 4.62366 7.68519 5.24537 7.50542 5.90454ZM3.01109 5.90454H5.66275C5.79758 5.33526 5.96626 4.78455 6.16881 4.25242C6.37135 3.7203 6.60715 3.20734 6.87621 2.71357C6.03727 2.98323 5.29181 3.39521 4.63984 3.94951C3.98786 4.50381 3.44495 5.15548 3.01109 5.90454Z" fill="#CA4552"/>
</svg>
